# xmcd CD database file
#
# Track frame offsets:
#	150
#	14400
#	29025
#	42737
#	56087
#	70450
#	85487
#	100150
#	114310
#	128405
#	142090
#	156912
#	171350
#	184440
#	199350
#	213175
#	227650
#	240865
#	254687
#	267575
#	280392
#
# Disc length: 3928 seconds
#
# Revision: 2
# Processed by: cddbd v1.4b42PL0 Copyright (c) Steve Scherf et al.
# Submitted via: CDex 1.40Beta5
#
DISCID=490f5615
DTITLE=Blind Willie McTell - The Definitive Blind Willie McTell [CD1]
DYEAR=1900
DGENRE=Blues
TTITLE0=Atlanta Strut
TTITLE1=Travelin' Blues
TTITLE2=Come On Around To My House Mama
TTITLE3=Kind Mama
TTITLE4=Talking To Myself
TTITLE5=Razor Ball
TTITLE6=Southern Can Is Mine
TTITLE7=Broke Down Engine Blues
TTITLE8=Stomp Down Rider
TTITLE9=Scarey Day Blues
TTITLE10=Rough Alley Blues
TTITLE11=Experience Blues
TTITLE12=Painful Blues
TTITLE13=Low Rider's Blues
TTITLE14=Georgia Rag
TTITLE15=Low Down Blues
TTITLE16=Warm It Up To Me
TTITLE17=It's Your Time To Worry
TTITLE18=It's A Good Little Thing
TTITLE19=You Was Born To Die
TTITLE20=Dirty Mistreater
EXTD=ID3G:   0
EXTT0=
EXTT1=
EXTT2=
EXTT3=
EXTT4=
EXTT5=
EXTT6=
EXTT7=
EXTT8=
EXTT9=
EXTT10=
EXTT11=
EXTT12=
EXTT13=
EXTT14=
EXTT15=
EXTT16=
EXTT17=
EXTT18=
EXTT19=
EXTT20=
PLAYORDER=
